2.6Hz3min_grf.mot
version=1
nRows=27
nColumns 19
inDegrees=yes
endheader
time	1_ground_force_vx	1_ground_force_vy	1_ground_force_vz	1_ground_force_px	1_ground_force_py	1_ground_force_pz	1_ground_torque_x	1_ground_torque_y	1_ground_torque_z	2_ground_force_vx	2_ground_force_vy	2_ground_force_vz	2_ground_force_px	2_ground_force_py	2_ground_force_pz	2_ground_torque_x	2_ground_torque_y	2_ground_torque_z
            3.751500	            3.489493	          511.560533	          -31.887154	           -0.130152	            0.006100	           -0.372157	           -0.000062	           -0.009055	            0.000564	           -4.431864	          650.567888	           59.716014	           -0.104535	            0.006195	           -0.722628	           -0.015018	            2.204470	            0.202350
            3.752000	            3.899436	          516.070431	          -32.602549	           -0.130512	            0.006100	           -0.372360	           -0.000245	           -0.032429	            0.002049	           -4.307059	          654.986220	           60.201004	           -0.104568	            0.006194	           -0.722431	           -0.014777	            2.247237	            0.206548
            3.752500	            4.218328	          520.218736	          -33.089978	           -0.130276	            0.006100	           -0.372266	           -0.001425	           -0.175694	            0.011176	           -4.232408	          660.325103	           60.736228	           -0.104429	            0.006195	           -0.722591	           -0.014325	            2.234929	            0.205567
            3.753000	            3.894717	          525.088962	          -33.802007	           -0.130318	            0.006100	           -0.372245	           -0.002818	           -0.379916	            0.024457	           -4.203276	          665.295413	           61.270158	           -0.104449	            0.006195	           -0.722489	           -0.014080	            2.228558	            0.205238
            3.753500	            3.892983	          529.597207	          -34.149530	           -0.130664	            0.006099	           -0.371952	           -0.002919	           -0.397041	            0.025602	           -3.802045	          671.003973	           61.712700	           -0.104581	            0.006195	           -0.722565	           -0.012623	            2.227729	            0.204886
            3.754000	            3.570334	          533.564698	          -34.544435	           -0.130659	            0.006099	           -0.372030	           -0.001705	           -0.254834	            0.016499	           -3.588940	          676.896561	           62.015195	           -0.104647	            0.006195	           -0.722782	           -0.011241	            2.120064	            0.194234
            3.754500	            3.933894	          539.156832	          -35.392642	           -0.130725	            0.006099	           -0.372070	           -0.000224	           -0.030735	            0.002018	           -3.605391	          681.498923	           62.407046	           -0.104596	            0.006195	           -0.722539	           -0.011237	            2.124010	            0.194502
            3.755000	            4.389779	          543.125850	          -36.110469	           -0.130807	            0.006098	           -0.371723	            0.000187	            0.023084	           -0.001535	           -3.248393	          686.471209	           62.753125	           -0.104581	            0.006195	           -0.722522	           -0.009833	            2.077972	            0.189956
            3.755500	            4.845615	          546.734595	          -36.875702	           -0.130935	            0.006099	           -0.371978	            0.000025	            0.002796	           -0.000189	           -3.224661	          692.915314	           63.104598	           -0.104681	            0.006194	           -0.722607	           -0.009725	            2.089679	            0.190309
            3.756000	            5.255917	          550.523036	          -37.502477	           -0.130954	            0.006099	           -0.372082	           -0.002071	           -0.216939	            0.014778	           -3.336764	          698.069485	           63.592317	           -0.105001	            0.006194	           -0.722728	           -0.009959	            2.083561	            0.189807
            3.756500	            5.620259	          555.573102	          -38.077867	           -0.131188	            0.006098	           -0.371879	           -0.002949	           -0.291535	            0.019981	           -3.170448	          703.961402	           64.035616	           -0.104995	            0.006194	           -0.722669	           -0.009364	            2.079157	            0.189130
            3.757000	            5.847642	          560.622158	          -38.423640	           -0.131471	            0.006097	           -0.371557	           -0.001799	           -0.172464	            0.011820	           -2.903038	          707.827379	           64.659360	           -0.104734	            0.006194	           -0.722612	           -0.008590	            2.094507	            0.191331
            3.757500	            5.891200	          564.410529	          -39.049504	           -0.131205	            0.006097	           -0.371623	           -0.000705	           -0.067517	            0.004671	           -2.925512	          714.087402	           64.963269	           -0.105071	            0.006193	           -0.722533	           -0.008100	            1.977110	            0.179865
            3.758000	            5.981155	          567.657234	          -39.494378	           -0.131160	            0.006097	           -0.371551	            0.001319	            0.125164	           -0.008708	           -2.712283	          719.978986	           65.547332	           -0.105166	            0.006193	           -0.722660	           -0.007313	            1.941126	            0.176721
            3.758500	            6.161686	          573.248620	          -40.204566	           -0.131617	            0.006095	           -0.371224	            0.001354	            0.125931	           -0.008832	           -2.683255	          724.950133	           65.846621	           -0.104942	            0.006194	           -0.722670	           -0.007105	            1.919686	            0.174363
            3.759000	            6.754871	          577.218180	          -41.014446	           -0.131864	            0.006095	           -0.371271	            0.000130	            0.011136	           -0.000791	           -2.705625	          731.209319	           66.385170	           -0.105233	            0.006193	           -0.722773	           -0.007103	            1.919590	            0.174276
            3.759500	            6.798025	          580.106175	          -41.873459	           -0.131586	            0.006097	           -0.371573	           -0.002589	           -0.220920	            0.015947	           -3.189993	          735.626579	           66.588852	           -0.105096	            0.006193	           -0.722496	           -0.008241	            1.900329	            0.172018
            3.760000	            7.208617	          584.795068	          -42.312945	           -0.131668	            0.006096	           -0.371381	           -0.003135	           -0.254308	            0.018401	           -3.164829	          741.701566	           67.173659	           -0.105326	            0.006192	           -0.722647	           -0.008127	            1.904602	            0.172494
            3.760500	            7.573595	          589.483680	          -42.660605	           -0.131732	            0.006096	           -0.371278	           -0.001628	           -0.126751	            0.009173	           -2.949607	          747.040789	           67.755752	           -0.105137	            0.006193	           -0.722762	           -0.007114	            1.801685	            0.163411
            3.761000	            7.571032	          594.173475	          -43.328343	           -0.131938	            0.006095	           -0.371229	            0.000909	            0.071332	           -0.005202	           -3.205001	          752.931685	           68.058446	           -0.105417	            0.006192	           -0.722682	           -0.007211	            1.693954	            0.153119
            3.761500	            7.615075	          599.042322	          -43.674434	           -0.132141	            0.006094	           -0.370967	            0.002946	            0.231743	           -0.016896	           -3.080114	          757.349348	           68.731149	           -0.105211	            0.006192	           -0.722586	           -0.006836	            1.680813	            0.152538
            3.762000	            7.749897	          602.651201	          -44.484723	           -0.132340	            0.006094	           -0.371051	            0.002120	            0.164872	           -0.012170	           -3.287288	          762.871797	           69.126365	           -0.105168	            0.006193	           -0.722751	           -0.007265	            1.685949	            0.152769
            3.762500	            7.609349	          607.341756	          -45.335551	           -0.132382	            0.006094	           -0.371058	           -0.000601	           -0.047932	            0.003578	           -3.541455	          768.395249	           69.193097	           -0.105461	            0.006192	           -0.722791	           -0.007523	            1.632249	            0.146982
            3.763000	            8.019621	          610.048936	          -46.058675	           -0.132354	            0.006096	           -0.371399	           -0.002052	           -0.156086	            0.011784	           -4.216943	          773.914501	           70.010874	           -0.105476	            0.006193	           -0.722906	           -0.009372	            1.719906	            0.155588
            3.763500	            8.199028	          616.182981	          -47.179243	           -0.132683	            0.006093	           -0.370812	           -0.003058	           -0.229825	            0.017597	           -4.751483	          779.252234	           70.217860	           -0.105470	            0.006192	           -0.722678	           -0.010351	            1.697638	            0.152973
            3.764000	            8.518003	          619.249949	          -47.717170	           -0.132676	            0.006094	           -0.371001	           -0.000216	           -0.015693	            0.001209	           -4.908361	          783.853083	           70.891339	           -0.105296	            0.006193	           -0.722755	           -0.010317	            1.647543	            0.149003
            3.764500	            8.699007	          624.119683	          -48.292886	           -0.132736	            0.006093	           -0.370767	            0.001832	            0.131434	           -0.010170	           -5.020423	          789.006920	           71.472914	           -0.105332	            0.006193	           -0.722742	           -0.010147	            1.594689	            0.144456
